<svg xmlns="http://www.w3.org/2000/svg" xmlns:xlink="http://www.w3.org/1999/xlink" width="500" zoomAndPan="magnify" viewBox="0 0 375 374.999991" height="500" preserveAspectRatio="xMidYMid meet" version="1.0"><defs><clipPath id="65cb048d58"><path d="M 86.71875 110 L 288.46875 110 L 288.46875 180 L 86.71875 180 Z M 86.71875 110 " clip-rule="nonzero"/></clipPath></defs><path fill="#faf0d7" d="M 146.222656 14.832031 C 147.628906 9.394531 144.710938 3.757812 139.476562 1.945312 C 139.375 1.945312 139.375 1.945312 139.273438 1.84375 C 133.9375 0.234375 128.703125 2.347656 123.769531 5.167969 C 117.324219 8.894531 111.386719 15.738281 108.667969 21.878906 C 105.445312 29.027344 104.136719 37.789062 104.035156 45.539062 C 103.835938 55.207031 104.640625 66.179688 107.457031 75.441406 C 114.105469 96.886719 124.273438 110.480469 136.757812 120.648438 L 150.652344 102.023438 C 140.078125 74.4375 138.667969 43.425781 146.222656 14.832031 Z M 146.222656 14.832031 " fill-opacity="1" fill-rule="nonzero"/><path fill="#f7cecc" d="M 131.925781 29.128906 C 132.730469 25 131.117188 20.773438 128.097656 19.464844 C 128.097656 19.464844 127.996094 19.464844 127.996094 19.464844 C 124.976562 18.15625 122.058594 19.765625 119.339844 21.878906 C 115.714844 24.699219 114.105469 27.519531 112.492188 32.148438 C 110.679688 37.585938 110.175781 45.238281 110.078125 51.078125 C 109.976562 58.328125 111.484375 65.171875 113.296875 72.121094 C 116.519531 84.503906 123.566406 98.5 130.617188 106.148438 L 137.765625 95.980469 C 130.113281 74.234375 127.695312 50.675781 131.925781 29.128906 Z M 131.925781 29.128906 " fill-opacity="1" fill-rule="nonzero"/><path fill="#faf0d7" d="M 231.195312 14.832031 C 229.785156 9.394531 232.707031 3.757812 237.941406 1.945312 C 238.042969 1.945312 238.042969 1.945312 238.140625 1.84375 C 243.476562 0.03125 248.714844 2.246094 253.648438 5.066406 C 260.089844 8.792969 266.03125 15.636719 268.75 21.78125 C 271.972656 28.929688 273.28125 37.6875 273.378906 45.441406 C 273.582031 55.105469 272.777344 66.078125 269.957031 75.34375 C 263.3125 96.785156 253.144531 110.378906 240.660156 120.546875 L 226.765625 101.921875 C 237.4375 74.4375 238.847656 43.425781 231.195312 14.832031 Z M 231.195312 14.832031 " fill-opacity="1" fill-rule="nonzero"/><path fill="#f7cecc" d="M 245.492188 29.128906 C 244.6875 25 246.296875 20.773438 249.316406 19.464844 C 249.316406 19.464844 249.417969 19.464844 249.417969 19.464844 C 252.4375 18.15625 255.359375 19.765625 258.078125 21.878906 C 261.703125 24.699219 263.3125 27.519531 264.921875 32.148438 C 266.734375 37.585938 267.238281 45.238281 267.339844 51.078125 C 267.441406 58.328125 265.929688 65.171875 264.117188 72.121094 C 260.894531 84.402344 253.847656 98.398438 246.902344 106.050781 L 239.753906 95.878906 C 247.304688 74.234375 249.820312 50.675781 245.492188 29.128906 Z M 245.492188 29.128906 " fill-opacity="1" fill-rule="nonzero"/><path fill="#5e17eb" d="M 272.675781 325.230469 C 277.40625 317.074219 274.386719 298.851562 266.03125 284.355469 L 266.03125 283.550781 C 268.75 283.75 271.066406 282.542969 272.675781 279.722656 C 277.40625 271.566406 274.386719 253.34375 266.132812 238.847656 L 266.132812 238.042969 C 268.851562 238.242188 271.164062 237.136719 272.777344 234.316406 C 277.609375 226.261719 274.589844 207.738281 265.929688 193.539062 L 265.929688 192.734375 C 268.648438 192.835938 270.964844 191.628906 272.472656 188.808594 C 277.003906 180.652344 273.480469 162.128906 264.21875 148.335938 L 264.21875 147.628906 C 266.9375 147.628906 269.152344 146.320312 270.5625 143.300781 C 271.46875 141.1875 271.871094 138.367188 271.769531 135.144531 C 271.566406 132.023438 270.761719 128.402344 269.453125 124.875 C 266.734375 117.726562 261.5 110.378906 255.054688 105.546875 L 254.855469 105.042969 C 257.371094 104.136719 259.082031 102.222656 259.386719 98.902344 C 259.6875 94.167969 256.769531 87.523438 251.03125 82.085938 C 245.390625 76.652344 236.933594 72.824219 228.980469 72.625 L 228.375 72.222656 C 229.988281 70.105469 230.390625 67.488281 228.679688 64.570312 C 226.261719 60.441406 219.820312 56.714844 211.964844 55.910156 C 204.214844 54.902344 195.050781 56.714844 188.609375 61.246094 C 182.164062 56.714844 173.003906 54.902344 165.25 55.910156 C 157.398438 56.816406 150.953125 60.441406 148.535156 64.570312 C 146.824219 67.386719 147.226562 70.003906 148.839844 72.222656 L 148.234375 72.625 C 140.28125 72.824219 131.824219 76.652344 126.183594 82.085938 C 120.445312 87.523438 117.527344 94.167969 117.828125 98.902344 C 118.132812 102.222656 119.84375 104.136719 122.359375 105.042969 L 122.058594 105.746094 C 115.511719 110.480469 110.277344 117.828125 107.660156 125.078125 C 106.351562 128.703125 105.546875 132.226562 105.34375 135.347656 C 105.242188 138.46875 105.648438 141.289062 106.554688 143.503906 C 107.960938 146.523438 110.277344 147.832031 112.894531 147.832031 L 112.894531 148.535156 C 103.632812 162.328125 100.210938 180.753906 104.640625 189.011719 C 106.25 191.828125 108.464844 193.039062 111.183594 192.9375 L 111.183594 193.742188 C 102.425781 207.9375 99.503906 226.464844 104.335938 234.519531 C 105.949219 237.335938 108.363281 238.445312 110.984375 238.242188 L 110.984375 239.046875 C 102.726562 253.546875 99.808594 271.769531 104.4375 279.925781 C 106.050781 282.742188 108.363281 283.953125 111.082031 283.75 L 111.082031 284.554688 C 102.726562 299.054688 99.707031 317.277344 104.4375 325.433594 C 106.050781 328.25 108.363281 329.460938 111.082031 329.257812 L 111.082031 330.0625 C 102.726562 344.460938 99.707031 362.785156 104.4375 370.941406 C 106.050781 373.757812 108.363281 374.96875 111.082031 374.765625 L 265.628906 374.765625 C 268.347656 374.96875 270.664062 373.757812 272.273438 370.941406 C 277.003906 362.785156 273.984375 344.5625 265.628906 330.0625 L 265.628906 329.257812 C 268.75 329.15625 271.066406 327.949219 272.675781 325.230469 Z M 272.675781 325.230469 " fill-opacity="1" fill-rule="nonzero"/><path fill="#faf0d7" d="M 219.261719 135.625 C 220.261719 136.628906 221.210938 137.675781 222.109375 138.765625 C 223.003906 139.859375 223.847656 140.996094 224.632812 142.171875 C 225.417969 143.347656 226.144531 144.558594 226.8125 145.808594 C 227.480469 147.054688 228.082031 148.332031 228.625 149.640625 C 229.167969 150.945312 229.640625 152.277344 230.054688 153.628906 C 230.464844 154.984375 230.808594 156.355469 231.082031 157.742188 C 231.359375 159.128906 231.566406 160.527344 231.703125 161.933594 C 231.84375 163.34375 231.914062 164.753906 231.914062 166.167969 C 231.914062 167.582031 231.84375 168.992188 231.707031 170.402344 C 231.566406 171.808594 231.359375 173.207031 231.082031 174.59375 C 230.808594 175.980469 230.464844 177.351562 230.054688 178.707031 C 229.644531 180.058594 229.167969 181.390625 228.625 182.695312 C 228.085938 184.003906 227.480469 185.28125 226.8125 186.527344 C 226.148438 187.777344 225.421875 188.988281 224.632812 190.164062 C 223.847656 191.339844 223.007812 192.476562 222.109375 193.570312 C 221.210938 194.664062 220.261719 195.710938 219.261719 196.710938 C 218.261719 197.710938 217.214844 198.660156 216.121094 199.554688 C 215.027344 200.453125 213.894531 201.296875 212.71875 202.082031 C 211.542969 202.867188 210.328125 203.59375 209.082031 204.261719 C 207.835938 204.925781 206.558594 205.53125 205.25 206.074219 C 203.945312 206.613281 202.613281 207.089844 201.257812 207.5 C 199.90625 207.910156 198.535156 208.253906 197.148438 208.53125 C 195.761719 208.804688 194.363281 209.015625 192.957031 209.152344 C 191.546875 209.292969 190.136719 209.359375 188.722656 209.359375 C 187.308594 209.359375 185.894531 209.292969 184.488281 209.152344 C 183.082031 209.015625 181.683594 208.808594 180.296875 208.53125 C 178.90625 208.253906 177.539062 207.910156 176.183594 207.5 C 174.832031 207.089844 173.5 206.613281 172.191406 206.074219 C 170.886719 205.53125 169.609375 204.929688 168.359375 204.261719 C 167.113281 203.59375 165.902344 202.867188 164.726562 202.082031 C 163.550781 201.296875 162.414062 200.453125 161.320312 199.558594 C 160.226562 198.660156 159.179688 197.710938 158.179688 196.710938 C 157.179688 195.710938 156.230469 194.664062 155.332031 193.570312 C 154.4375 192.476562 153.59375 191.339844 152.808594 190.164062 C 152.023438 188.988281 151.296875 187.777344 150.628906 186.53125 C 149.960938 185.28125 149.359375 184.003906 148.816406 182.699219 C 148.277344 181.390625 147.800781 180.0625 147.390625 178.707031 C 146.976562 177.355469 146.636719 175.984375 146.359375 174.597656 C 146.082031 173.207031 145.875 171.8125 145.738281 170.402344 C 145.597656 168.996094 145.527344 167.585938 145.527344 166.167969 C 145.527344 164.753906 145.597656 163.34375 145.738281 161.9375 C 145.875 160.527344 146.082031 159.128906 146.359375 157.742188 C 146.636719 156.355469 146.976562 154.984375 147.390625 153.632812 C 147.800781 152.277344 148.273438 150.949219 148.816406 149.640625 C 149.359375 148.332031 149.960938 147.054688 150.628906 145.808594 C 151.296875 144.5625 152.023438 143.347656 152.808594 142.171875 C 153.59375 140.996094 154.433594 139.863281 155.332031 138.769531 C 156.230469 137.675781 157.179688 136.628906 158.179688 135.628906 C 159.179688 134.628906 160.226562 133.679688 161.320312 132.78125 C 162.414062 131.882812 163.546875 131.042969 164.722656 130.257812 C 165.902344 129.46875 167.113281 128.742188 168.359375 128.078125 C 169.605469 127.410156 170.882812 126.804688 172.191406 126.265625 C 173.5 125.722656 174.828125 125.246094 176.183594 124.835938 C 177.535156 124.425781 178.90625 124.082031 180.292969 123.808594 C 181.679688 123.53125 183.078125 123.324219 184.488281 123.183594 C 185.894531 123.046875 187.304688 122.976562 188.71875 122.976562 C 190.136719 122.976562 191.546875 123.046875 192.953125 123.183594 C 194.363281 123.324219 195.757812 123.53125 197.148438 123.804688 C 198.535156 124.082031 199.90625 124.425781 201.257812 124.835938 C 202.613281 125.246094 203.941406 125.722656 205.25 126.265625 C 206.554688 126.804688 207.832031 127.410156 209.082031 128.078125 C 210.328125 128.742188 211.539062 129.46875 212.714844 130.253906 C 213.894531 131.042969 215.027344 131.882812 216.121094 132.78125 C 217.214844 133.679688 218.261719 134.625 219.261719 135.625 Z M 219.261719 135.625 " fill-opacity="1" fill-rule="nonzero"/><path fill="#000000" d="M 188.707031 176.625 C 186.894531 176.625 185.488281 175.21875 185.488281 173.40625 L 185.488281 158.402344 C 185.488281 156.589844 186.894531 155.179688 188.707031 155.179688 C 190.519531 155.179688 191.929688 156.589844 191.929688 158.402344 L 191.929688 173.40625 C 191.929688 175.21875 190.519531 176.625 188.707031 176.625 Z M 188.707031 176.625 " fill-opacity="1" fill-rule="nonzero"/><path fill="#000000" d="M 172.699219 182.867188 C 170.082031 182.867188 167.867188 182.265625 166.054688 180.957031 C 163.839844 179.34375 162.53125 176.726562 162.128906 173.605469 C 161.828125 171.191406 162.230469 168.875 162.53125 166.859375 C 162.832031 165.046875 164.542969 163.941406 166.257812 164.140625 C 168.070312 164.445312 169.175781 166.054688 168.976562 167.867188 C 168.671875 169.578125 168.371094 171.390625 168.570312 172.902344 C 168.671875 174.210938 169.277344 175.316406 169.980469 175.820312 C 170.785156 176.425781 172.195312 176.625 174.109375 176.425781 C 178.742188 175.921875 183.171875 173.707031 186.390625 170.382812 C 187.601562 169.175781 189.816406 169.175781 191.023438 170.382812 C 194.246094 173.707031 198.777344 175.921875 203.308594 176.425781 C 205.21875 176.625 206.628906 176.425781 207.433594 175.820312 C 208.140625 175.316406 208.644531 174.210938 208.84375 172.902344 C 209.046875 171.390625 208.742188 169.578125 208.441406 167.867188 C 208.140625 166.054688 209.347656 164.445312 211.160156 164.140625 C 212.871094 163.839844 214.582031 165.046875 214.886719 166.859375 C 215.1875 168.875 215.589844 171.191406 215.289062 173.605469 C 214.886719 176.726562 213.578125 179.34375 211.359375 180.957031 C 209.144531 182.566406 206.226562 183.171875 202.601562 182.769531 C 197.46875 182.164062 192.632812 180.148438 188.707031 176.929688 C 184.78125 180.148438 179.949219 182.164062 174.8125 182.769531 C 174.109375 182.769531 173.40625 182.867188 172.699219 182.867188 Z M 172.699219 182.867188 " fill-opacity="1" fill-rule="nonzero"/><path fill="#000000" d="M 199.28125 151.054688 L 188.707031 159.007812 L 178.136719 151.054688 C 183.976562 145.214844 193.441406 145.214844 199.28125 151.054688 Z M 199.28125 151.054688 " fill-opacity="1" fill-rule="nonzero"/><path fill="#000000" d="M 188.707031 160.921875 C 188.304688 160.921875 187.902344 160.820312 187.5 160.519531 L 176.929688 152.5625 C 176.527344 152.261719 176.222656 151.65625 176.125 151.15625 C 176.125 150.550781 176.324219 150.046875 176.726562 149.644531 C 183.070312 143.300781 194.246094 143.300781 200.589844 149.644531 C 200.992188 150.046875 201.191406 150.550781 201.191406 151.15625 C 201.191406 151.757812 200.890625 152.261719 200.386719 152.5625 L 189.816406 160.519531 C 189.613281 160.820312 189.109375 160.921875 188.707031 160.921875 Z M 181.359375 150.953125 L 188.707031 156.589844 L 196.058594 150.953125 C 191.730469 147.832031 185.789062 147.832031 181.359375 150.953125 Z M 181.359375 150.953125 " fill-opacity="1" fill-rule="nonzero"/><path fill="#000000" d="M 136.050781 141.992188 C 128.402344 141.992188 122.257812 135.851562 122.257812 128.199219 C 122.257812 126.386719 123.667969 124.976562 125.480469 124.976562 C 127.292969 124.976562 128.703125 126.386719 128.703125 128.199219 C 128.703125 132.226562 132.023438 135.546875 136.050781 135.546875 C 140.078125 135.546875 143.402344 132.226562 143.402344 128.199219 C 143.402344 126.386719 144.8125 124.976562 146.625 124.976562 C 148.4375 124.976562 149.84375 126.386719 149.84375 128.199219 C 149.84375 135.75 143.703125 141.992188 136.050781 141.992188 Z M 136.050781 141.992188 " fill-opacity="1" fill-rule="nonzero"/><path fill="#000000" d="M 119.742188 136.253906 C 118.433594 136.253906 117.125 136.050781 115.917969 135.449219 C 115.011719 135.046875 114.605469 134.039062 115.011719 133.234375 C 115.414062 132.328125 116.417969 131.925781 117.226562 132.328125 C 119.84375 133.433594 123.667969 132.425781 124.777344 130.414062 C 125.179688 129.609375 126.285156 129.207031 127.089844 129.710938 C 127.898438 130.113281 128.199219 131.21875 127.796875 132.023438 C 126.488281 134.742188 123.164062 136.253906 119.742188 136.253906 Z M 119.742188 136.253906 " fill-opacity="1" fill-rule="nonzero"/><path fill="#000000" d="M 120.445312 143.101562 C 120.445312 143.101562 120.347656 143.101562 120.347656 143.101562 C 119.441406 143.101562 118.632812 142.292969 118.632812 141.386719 C 118.632812 140.480469 119.238281 139.777344 120.347656 139.675781 C 123.164062 139.878906 126.386719 137.261719 126.589844 134.945312 C 126.6875 134.039062 127.496094 133.234375 128.402344 133.433594 C 129.304688 133.535156 130.011719 134.339844 129.910156 135.246094 C 129.609375 139.476562 125.078125 143.101562 120.445312 143.101562 Z M 120.445312 143.101562 " fill-opacity="1" fill-rule="nonzero"/><path fill="#000000" d="M 128.402344 148.9375 C 127.695312 148.9375 127.089844 148.535156 126.789062 147.832031 C 126.488281 146.925781 126.890625 145.917969 127.796875 145.617188 C 130.414062 144.609375 132.527344 141.289062 131.925781 138.972656 C 131.621094 138.066406 132.226562 137.160156 133.132812 136.859375 C 134.039062 136.65625 134.945312 137.160156 135.246094 138.066406 C 136.355469 142.09375 133.332031 147.128906 129.003906 148.738281 C 128.804688 148.839844 128.601562 148.9375 128.402344 148.9375 Z M 128.402344 148.9375 " fill-opacity="1" fill-rule="nonzero"/><path fill="#000000" d="M 241.261719 141.992188 C 233.613281 141.992188 227.46875 135.851562 227.46875 128.199219 C 227.46875 126.386719 228.878906 124.976562 230.691406 124.976562 C 232.503906 124.976562 233.914062 126.386719 233.914062 128.199219 C 233.914062 132.226562 237.234375 135.546875 241.261719 135.546875 C 245.289062 135.546875 248.613281 132.226562 248.613281 128.199219 C 248.613281 126.386719 250.023438 124.976562 251.835938 124.976562 C 253.648438 124.976562 255.054688 126.386719 255.054688 128.199219 C 255.054688 135.75 248.914062 141.992188 241.261719 141.992188 Z M 241.261719 141.992188 " fill-opacity="1" fill-rule="nonzero"/><path fill="#000000" d="M 257.574219 136.253906 C 254.25 136.253906 250.929688 134.644531 249.519531 132.023438 C 249.117188 131.21875 249.417969 130.113281 250.222656 129.710938 C 251.03125 129.304688 252.136719 129.609375 252.539062 130.414062 C 253.648438 132.425781 257.472656 133.433594 260.089844 132.328125 C 260.996094 131.925781 262.003906 132.328125 262.304688 133.234375 C 262.707031 134.140625 262.304688 135.144531 261.398438 135.449219 C 260.191406 136.050781 258.882812 136.253906 257.574219 136.253906 Z M 257.574219 136.253906 " fill-opacity="1" fill-rule="nonzero"/><path fill="#000000" d="M 256.867188 143.101562 C 252.238281 143.101562 247.707031 139.375 247.304688 135.347656 C 247.203125 134.441406 247.910156 133.535156 248.8125 133.535156 C 249.71875 133.433594 250.625 134.140625 250.625 135.046875 C 250.828125 137.359375 254.050781 139.980469 256.867188 139.777344 C 257.675781 139.878906 258.582031 140.480469 258.582031 141.488281 C 258.582031 142.394531 257.875 143.199219 256.867188 143.199219 C 256.96875 143.101562 256.96875 143.101562 256.867188 143.101562 Z M 256.867188 143.101562 " fill-opacity="1" fill-rule="nonzero"/><path fill="#000000" d="M 248.914062 148.9375 C 248.714844 148.9375 248.511719 148.9375 248.3125 148.839844 C 243.882812 147.226562 240.960938 142.09375 242.070312 138.167969 C 242.371094 137.261719 243.277344 136.757812 244.183594 136.957031 C 245.089844 137.261719 245.59375 138.167969 245.390625 139.074219 C 244.789062 141.289062 246.902344 144.710938 249.519531 145.71875 C 250.425781 146.019531 250.828125 147.027344 250.527344 147.933594 C 250.324219 148.4375 249.621094 148.9375 248.914062 148.9375 Z M 248.914062 148.9375 " fill-opacity="1" fill-rule="nonzero"/><g clip-path="url(#65cb048d58)"><path fill="#ff7387" d="M 285.261719 115.109375 C 284.253906 114.910156 281.636719 114.003906 280.628906 113.800781 C 269.855469 111.789062 257.875 110.378906 245.492188 110.378906 C 225.65625 110.378906 210.253906 110.78125 195.453125 115.3125 C 195.050781 115.414062 191.425781 116.21875 187.398438 116.21875 C 183.371094 116.21875 180.148438 115.511719 179.746094 115.3125 C 164.949219 110.78125 149.542969 110.378906 129.710938 110.378906 C 117.226562 110.378906 105.34375 111.789062 94.570312 113.800781 C 93.363281 114.003906 90.746094 114.910156 89.738281 115.109375 C 87.925781 115.511719 86.71875 117.023438 86.71875 118.835938 L 86.71875 125.882812 C 86.71875 127.695312 88.027344 129.207031 89.738281 129.609375 C 90.949219 129.808594 92.15625 130.113281 93.464844 130.3125 C 95.074219 144.710938 99.605469 157.597656 106.148438 167.363281 C 110.277344 173.503906 116.820312 177.734375 124.171875 178.941406 C 127.898438 179.546875 131.722656 179.847656 135.75 179.847656 C 141.1875 179.847656 146.421875 179.246094 151.355469 178.136719 C 158 176.625 163.839844 172.699219 167.566406 166.960938 C 173.003906 158.605469 177.027344 148.03125 179.042969 136.253906 C 179.746094 132.226562 183.070312 129.105469 187.199219 129.105469 C 187.398438 129.105469 187.5 129.105469 187.703125 129.105469 C 187.703125 129.105469 187.800781 129.105469 187.800781 129.105469 C 191.929688 129.105469 195.253906 132.226562 195.957031 136.253906 C 197.972656 148.03125 201.996094 158.605469 207.433594 166.960938 C 211.160156 172.699219 217 176.625 223.644531 178.136719 C 228.578125 179.246094 233.8125 179.847656 239.25 179.847656 C 243.175781 179.847656 247.101562 179.546875 250.828125 178.941406 C 258.179688 177.734375 264.722656 173.605469 268.851562 167.363281 C 275.394531 157.597656 279.925781 144.710938 281.535156 130.3125 C 282.742188 130.113281 284.050781 129.808594 285.261719 129.609375 C 287.074219 129.207031 288.28125 127.695312 288.28125 125.882812 L 288.28125 118.835938 C 288.28125 117.023438 286.972656 115.511719 285.261719 115.109375 Z M 285.261719 115.109375 " fill-opacity="1" fill-rule="nonzero"/></g><path fill="#000000" d="M 168.269531 121.855469 C 165.351562 118.632812 159.511719 117.628906 156.1875 117.226562 C 149.34375 116.320312 137.765625 116.015625 136.050781 116.117188 C 134.339844 116.117188 122.660156 116.320312 115.917969 117.226562 C 112.59375 117.726562 106.855469 118.632812 103.835938 121.855469 C 99.90625 126.183594 100.007812 131.019531 100.3125 134.339844 C 101.71875 147.53125 104.136719 153.671875 109.976562 162.53125 C 113.601562 168.167969 119.441406 171.996094 125.882812 173.101562 C 129.207031 173.605469 132.527344 173.90625 136.050781 173.90625 C 139.574219 173.90625 142.898438 173.605469 146.222656 173.101562 C 152.765625 171.996094 158.503906 168.167969 162.128906 162.53125 C 167.867188 153.570312 170.382812 147.53125 171.792969 134.339844 C 172.097656 131.019531 172.195312 126.183594 168.269531 121.855469 Z M 168.269531 121.855469 " fill-opacity="1" fill-rule="nonzero"/><path fill="#000000" d="M 206.628906 121.855469 C 209.550781 118.632812 215.386719 117.628906 218.710938 117.226562 C 225.558594 116.320312 237.136719 116.015625 238.847656 116.117188 C 240.558594 116.117188 252.238281 116.320312 258.984375 117.226562 C 262.304688 117.726562 268.042969 118.632812 271.066406 121.855469 C 274.992188 126.183594 274.890625 131.019531 274.589844 134.339844 C 273.179688 147.53125 270.761719 153.671875 264.921875 162.53125 C 261.296875 168.167969 255.460938 171.996094 249.015625 173.101562 C 245.691406 173.605469 242.371094 173.90625 238.847656 173.90625 C 235.324219 173.90625 232 173.605469 228.679688 173.101562 C 222.132812 171.996094 216.394531 168.167969 212.769531 162.53125 C 207.03125 153.570312 204.515625 147.53125 203.105469 134.339844 C 202.902344 131.019531 202.804688 126.183594 206.628906 121.855469 Z M 206.628906 121.855469 " fill-opacity="1" fill-rule="nonzero"/><path fill="#5e17eb" d="M 164.644531 126.488281 C 163.136719 124.171875 161.925781 122.761719 158.804688 121.855469 C 156.390625 121.152344 154.777344 121.554688 153.167969 121.957031 C 151.859375 122.257812 150.75 123.367188 150.347656 124.875 C 150.046875 126.085938 150.25 127.191406 151.054688 127.996094 C 151.457031 128.601562 152.5625 129.609375 154.578125 129.910156 C 155.082031 130.011719 155.886719 129.910156 156.492188 130.113281 C 158.101562 130.714844 158.300781 131.523438 158.605469 133.132812 C 158.90625 134.742188 160.015625 136.050781 160.214844 136.253906 C 160.316406 136.355469 160.417969 136.453125 160.519531 136.554688 C 161.925781 137.664062 163.136719 137.664062 163.941406 137.460938 C 164.242188 137.359375 164.445312 137.261719 164.644531 137.160156 C 166.054688 136.453125 166.859375 134.742188 166.660156 132.929688 C 166.355469 130.210938 165.753906 128.097656 164.644531 126.488281 Z M 164.644531 126.488281 " fill-opacity="1" fill-rule="nonzero"/><path fill="#5e17eb" d="M 267.742188 126.488281 C 266.230469 124.171875 265.023438 122.761719 261.902344 121.855469 C 259.488281 121.152344 257.875 121.554688 256.265625 121.957031 C 254.957031 122.257812 253.847656 123.367188 253.445312 124.875 C 253.144531 126.085938 253.34375 127.191406 254.152344 127.996094 C 254.554688 128.601562 255.660156 129.609375 257.675781 129.910156 C 258.175781 130.011719 258.984375 129.910156 259.585938 130.113281 C 261.199219 130.714844 261.398438 131.523438 261.703125 133.132812 C 262.003906 134.742188 263.109375 136.050781 263.3125 136.253906 C 263.414062 136.355469 263.515625 136.453125 263.613281 136.554688 C 265.023438 137.664062 266.230469 137.664062 267.039062 137.460938 C 267.339844 137.359375 267.542969 137.261719 267.742188 137.160156 C 269.152344 136.453125 269.957031 134.742188 269.757812 132.929688 C 269.554688 130.210938 268.851562 128.097656 267.742188 126.488281 Z M 267.742188 126.488281 " fill-opacity="1" fill-rule="nonzero"/><path stroke-linecap="butt" transform="matrix(0.75, 0, 0, 0.75, 127.499996, 279.435481)" fill="none" stroke-linejoin="miter" d="M 0.00000516333 1.997484 L 160.000016 1.997484 " stroke="#5e17eb" stroke-width="4" stroke-opacity="1" stroke-miterlimit="4"/></svg>